<svg data-name="Layer 1" xmlns="http://www.w3.org/2000/svg" width="197.8" height="114.2"><path d="M98.9 0L0 57.1l98.9 57.1 98.9-57.1zm14.3 77.8c-3.3 2.7-7.5 4-12.8 4-7.7 0-14.6-2.8-20.7-8.5l6.4-7.9c5.2 4.6 10 6.8 14.5 6.8a7.49 7.49 0 0 0 4.7-1.3 4.27 4.27 0 0 0 1.7-3.5 4.1 4.1 0 0 0-1.8-3.5c-1.2-.9-3.6-1.7-7.1-2.6-5.6-1.3-9.7-3.1-12.3-5.2s-3.9-5.5-3.9-10.1a12.7 12.7 0 0 1 4.9-10.6c3.3-2.5 7.4-3.7 12.3-3.7a30 30 0 0 1 9.7 1.7 26.47 26.47 0 0 1 8.4 4.7l-5.5 7.9a21.15 21.15 0 0 0-13-4.8 7.23 7.23 0 0 0-4.2 1.3 4.42 4.42 0 0 0-1.6 3.4 3.92 3.92 0 0 0 1.9 3.4c1.3.8 4.2 1.8 8.8 2.9s8.2 2.8 10.7 5.1 3.8 5.6 3.8 9.9a13.08 13.08 0 0 1-4.9 10.6z" fill="#da4827"/><path d="M114.3 57.3c-2.5-2.3-6.1-4-10.7-5.1s-7.5-2.1-8.8-2.9a3.92 3.92 0 0 1-1.9-3.4 4.42 4.42 0 0 1 1.6-3.4 7.23 7.23 0 0 1 4.2-1.3 21.15 21.15 0 0 1 13 4.8l5.5-7.9a26.47 26.47 0 0 0-8.4-4.7 30 30 0 0 0-9.7-1.7c-4.9 0-9 1.2-12.3 3.7A12.7 12.7 0 0 0 81.9 46c0 4.6 1.3 8 3.9 10.1s6.7 3.9 12.3 5.2c3.5.9 5.9 1.7 7.1 2.6a4.1 4.1 0 0 1 1.8 3.5 4.27 4.27 0 0 1-1.7 3.5 7.49 7.49 0 0 1-4.7 1.3c-4.5 0-9.3-2.2-14.5-6.8l-6.4 7.9c6.1 5.7 13 8.5 20.7 8.5 5.3 0 9.5-1.3 12.8-4a13.08 13.08 0 0 0 4.9-10.6c0-4.3-1.3-7.6-3.8-9.9z" opacity=".01"/></svg>
